<svg width="167" height="186" viewBox="0 0 167 186" fill="none" xmlns="http://www.w3.org/2000/svg">
<path d="M89.9833 35.4784C90.385 34.7539 90.1232 33.8409 89.3986 33.4393L77.5913 26.8943C76.8667 26.4927 75.9537 26.7545 75.5521 27.4791C75.1505 28.2036 75.4123 29.1166 76.1368 29.5182L86.6323 35.3359L80.8146 45.8314C80.4129 46.5559 80.6747 47.4689 81.3993 47.8705C82.1238 48.2721 83.0368 48.0103 83.4384 47.2858L89.9833 35.4784ZM3.75428 60.6613L89.0849 36.1931L88.258 33.3093L2.92736 57.7775L3.75428 60.6613Z" fill="#2A2B2E" fill-opacity="0.8"/>
<path d="M89.3986 160.531C90.1232 160.13 90.385 159.217 89.9833 158.492L83.4384 146.685C83.0368 145.96 82.1238 145.698 81.3993 146.1C80.6747 146.502 80.4129 147.415 80.8145 148.139L86.6323 158.635L76.1368 164.452C75.4123 164.854 75.1505 165.767 75.5521 166.492C75.9537 167.216 76.8667 167.478 77.5913 167.076L89.3986 160.531ZM2.92736 136.193L88.258 160.661L89.0849 157.777L3.75428 133.309L2.92736 136.193Z" fill="#2A2B2E" fill-opacity="0.8"/>
<path d="M94.83 98.0607C95.4158 97.4749 95.4158 96.5251 94.83 95.9393L85.2841 86.3934C84.6983 85.8076 83.7485 85.8076 83.1628 86.3934C82.577 86.9792 82.577 87.9289 83.1628 88.5147L91.648 97L83.1628 105.485C82.577 106.071 82.577 107.021 83.1628 107.607C83.7485 108.192 84.6983 108.192 85.2841 107.607L94.83 98.0607ZM5 98.5H93.7694V95.5H5V98.5Z" fill="#2A2B2E" fill-opacity="0.8"/>
<path d="M121.035 185H121C119.761 185 118.333 185.047 116.918 185.094C116.22 185.118 115.524 185.141 114.856 185.158C113.061 185.204 111.491 185.207 110.5 185.077L110.5 184.375L110.5 183.109L110.5 182.67L110.5 182.545L110.5 182.511V182.503V182.501V182.5V182.5L110 182.5H110.5C110.5 169.298 122.533 158.5 137.5 158.5C144.906 158.5 152.028 162.774 157.322 168.344C159.964 171.124 162.133 174.209 163.64 177.209C165.046 180.009 165.861 182.708 165.967 185L164.878 185C163.971 185 162.851 185 162 185C160.296 185.001 158.541 185.001 157.212 185.001L155.597 185L155.141 185L155.02 185L154.989 185L154.981 185L154.979 185H154.979H154.979H154.978H154.927H154.876H154.825H154.775H154.724H154.674H154.623H154.573H154.523H154.473H154.423H154.374H154.325H154.275H154.226H154.177H154.128H154.08H154.031H153.983H153.934H153.886H153.838H153.79H153.743H153.695H153.648H153.6H153.553H153.506H153.459H153.413H153.366H153.319H153.273H153.227H153.181H153.135H153.089H153.043H152.998H152.952H152.907H152.862H152.817H152.772H152.727H152.683H152.638H152.594H152.549H152.505H152.461H152.417H152.374H152.33H152.286H152.243H152.2H152.157H152.114H152.071H152.028H151.985H151.943H151.9H151.858H151.816H151.774H151.732H151.69H151.648H151.607H151.565H151.524H151.482H151.441H151.4H151.359H151.319H151.278H151.237H151.197H151.156H151.116H151.076H151.036H150.996H150.956H150.917H150.877H150.837H150.798H150.759H150.72H150.68H150.641H150.603H150.564H150.525H150.487H150.448H150.41H150.372H150.333H150.295H150.257H150.219H150.182H150.144H150.106H150.069H150.032H149.994H149.957H149.92H149.883H149.846H149.809H149.773H149.736H149.699H149.663H149.627H149.59H149.554H149.518H149.482H149.446H149.41H149.374H149.339H149.303H149.268H149.232H149.197H149.162H149.127H149.092H149.057H149.022H148.987H148.952H148.918H148.883H148.848H148.814H148.78H148.745H148.711H148.677H148.643H148.609H148.575H148.541H148.508H148.474H148.441H148.407H148.374H148.34H148.307H148.274H148.241H148.207H148.174H148.142H148.109H148.076H148.043H148.01H147.978H147.945H147.913H147.88H147.848H147.816H147.784H147.751H147.719H147.687H147.655H147.624H147.592H147.56H147.528H147.497H147.465H147.433H147.402H147.37H147.339H147.308H147.277H147.245H147.214H147.183H147.152H147.121H147.09H147.059H147.028H146.998H146.967H146.936H146.906H146.875H146.845H146.814H146.784H146.753H146.723H146.693H146.662H146.632H146.602H146.572H146.542H146.512H146.482H146.452H146.422H146.392H146.362H146.333H146.303H146.273H146.244H146.214H146.184H146.155H146.125H146.096H146.066H146.037H146.008H145.978H145.949H145.92H145.891H145.861H145.832H145.803H145.774H145.745H145.716H145.687H145.658H145.629H145.6H145.571H145.542H145.514H145.485H145.456H145.427H145.398H145.37H145.341H145.312H145.284H145.255H145.227H145.198H145.169H145.141H145.112H145.084H145.055H145.027H144.999H144.97H144.942H144.913H144.885H144.857H144.828H144.8H144.772H144.743H144.715H144.687H144.659H144.63H144.602H144.574H144.546H144.517H144.489H144.461H144.433H144.405H144.376H144.348H144.32H144.292H144.264H144.236H144.208H144.179H144.151H144.123H144.095H144.067H144.039H144.011H143.983H143.954H143.926H143.898H143.87H143.842H143.814H143.786H143.758H143.729H143.701H143.673H143.645H143.617H143.589H143.56H143.532H143.504H143.476H143.448H143.419H143.391H143.363H143.335H143.306H143.278H143.25H143.222H143.193H143.165H143.137H143.108H143.08H143.051H143.023H142.995H142.966H142.938H142.909H142.881H142.852H142.824H142.795H142.766H142.738H142.709H142.681H142.652H142.623H142.594H142.566H142.537H142.508H142.479H142.45H142.422H142.393H142.364H142.335H142.306H142.277H142.248H142.219H142.19H142.16H142.131H142.102H142.073H142.043H142.014H141.985H141.955H141.926H141.897H141.867H141.838H141.808H141.778H141.749H141.719H141.689H141.66H141.63H141.6H141.57H141.54H141.51H141.48H141.45H141.42H141.39H141.36H141.33H141.299H141.269H141.239H141.208H141.178H141.147H141.117H141.086H141.055H141.025H140.994H140.963H140.932H140.901H140.87H140.839H140.808H140.777H140.746H140.715H140.683H140.652H140.621H140.589H140.558H140.526H140.495H140.463H140.431H140.399H140.367H140.335H140.303H140.271H140.239H140.207H140.175H140.143H140.11H140.078H140.045H140.013H139.98H139.947H139.914H139.882H139.849H139.816H139.783H139.75H139.716H139.683H139.65H139.616H139.583H139.549H139.516H139.482H139.448H139.414H139.38H139.346H139.312H139.278H139.244H139.21H139.175H139.141H139.106H139.072H139.037H139.002H138.967H138.932H138.897H138.862H138.827H138.792H138.756H138.721H138.685H138.65H138.614H138.578H138.542H138.506H138.47H138.434H138.398H138.362H138.325H138.289H138.252H138.215H138.179H138.142H138.105H138.068H138.03H137.993H137.956H137.918H137.881H137.843H137.806H137.768H137.73H137.692H137.654H137.615H137.577H137.539H137.5H137.462H137.423H137.385H137.346H137.308H137.27H137.232H137.193H137.155H137.117H137.079H137.041H137.004H136.966H136.928H136.89H136.853H136.815H136.778H136.74H136.703H136.666H136.628H136.591H136.554H136.517H136.48H136.443H136.406H136.369H136.332H136.296H136.259H136.222H136.186H136.149H136.113H136.076H136.04H136.003H135.967H135.931H135.895H135.859H135.823H135.787H135.751H135.715H135.679H135.643H135.607H135.571H135.536H135.5H135.465H135.429H135.394H135.358H135.323H135.288H135.252H135.217H135.182H135.147H135.112H135.077H135.042H135.007H134.972H134.937H134.902H134.867H134.833H134.798H134.763H134.729H134.694H134.66H134.625H134.591H134.557H134.522H134.488H134.454H134.42H134.385H134.351H134.317H134.283H134.249H134.215H134.182H134.148H134.114H134.08H134.046H134.013H133.979H133.946H133.912H133.878H133.845H133.812H133.778H133.745H133.712H133.678H133.645H133.612H133.579H133.545H133.512H133.479H133.446H133.413H133.38H133.347H133.315H133.282H133.249H133.216H133.184H133.151H133.118H133.086H133.053H133.02H132.988H132.955H132.923H132.891H132.858H132.826H132.793H132.761H132.729H132.697H132.665H132.632H132.6H132.568H132.536H132.504H132.472H132.44H132.408H132.376H132.344H132.312H132.281H132.249H132.217H132.185H132.154H132.122H132.09H132.059H132.027H131.996H131.964H131.932H131.901H131.87H131.838H131.807H131.775H131.744H131.713H131.681H131.65H131.619H131.588H131.556H131.525H131.494H131.463H131.432H131.401H131.37H131.339H131.308H131.277H131.246H131.215H131.184H131.153H131.122H131.091H131.06H131.029H130.999H130.968H130.937H130.906H130.876H130.845H130.814H130.784H130.753H130.722H130.692H130.661H130.631H130.6H130.569H130.539H130.508H130.478H130.448H130.417H130.387H130.356H130.326H130.295H130.265H130.235H130.204H130.174H130.144H130.113H130.083H130.053H130.023H129.992H129.962H129.932H129.902H129.872H129.841H129.811H129.781H129.751H129.721H129.691H129.661H129.631H129.601H129.57H129.54H129.51H129.48H129.45H129.42H129.39H129.36H129.33H129.3H129.27H129.24H129.21H129.181H129.151H129.121H129.091H129.061H129.031H129.001H128.971H128.941H128.911H128.881H128.852H128.822H128.792H128.762H128.732H128.702H128.672H128.643H128.613H128.583H128.553H128.523H128.493H128.464H128.434H128.404H128.374H128.344H128.315H128.285H128.255H128.225H128.195H128.166H128.136H128.106H128.076H128.046H128.017H127.987H127.957H127.927H127.897H127.868H127.838H127.808H127.778H127.748H127.719H127.689H127.659H127.629H127.599H127.569H127.54H127.51H127.48H127.45H127.42H127.39H127.36H127.331H127.301H127.271H127.241H127.211H127.181H127.151H127.121H127.091H127.062H127.032H127.002H126.972H126.942H126.912H126.882H126.852H126.822H126.792H126.762H126.732H126.702H126.672H126.642H126.612H126.582H126.552H126.521H126.491H126.461H126.431H126.401H126.371H126.341H126.311H126.28H126.25H126.22H126.19H126.159H126.129H126.099H126.069H126.038H126.008H125.978H125.947H125.917H125.887H125.856H125.826H125.795H125.765H125.735H125.704H125.674H125.643H125.613H125.582H125.552H125.521H125.49H125.46H125.429H125.399H125.368H125.337H125.307H125.276H125.245H125.214H125.184H125.153H125.122H125.091H125.06H125.029H124.998H124.967H124.937H124.906H124.875H124.844H124.812H124.781H124.75H124.719H124.688H124.657H124.626H124.595H124.563H124.532H124.501H124.469H124.438H124.407H124.375H124.344H124.313H124.281H124.25H124.218H124.187H124.155H124.123H124.092H124.06H124.028H123.997H123.965H123.933H123.901H123.87H123.838H123.806H123.774H123.742H123.71H123.678H123.646H123.614H123.582H123.55H123.518H123.485H123.453H123.421H123.389H123.356H123.324H123.292H123.259H123.227H123.194H123.162H123.129H123.097H123.064H123.031H122.999H122.966H122.933H122.9H122.867H122.835H122.802H122.769H122.736H122.703H122.67H122.637H122.603H122.57H122.537H122.504H122.471H122.437H122.404H122.37H122.337H122.304H122.27H122.236H122.203H122.169H122.136H122.102H122.068H122.034H122H121.967H121.933H121.899H121.865H121.831H121.796H121.762H121.728H121.694H121.66H121.625H121.591H121.557H121.522H121.488H121.453H121.419H121.384H121.349H121.315H121.28H121.245H121.21H121.175H121.14H121.105H121.07H121.035Z" fill="#78B857" stroke="#FCFCFC"/>
<circle cx="138" cy="149" r="14.5" fill="#78B857" stroke="#FCFCFC"/>
<path d="M121.035 118H121C119.761 118 118.333 118.047 116.918 118.094C116.22 118.118 115.524 118.141 114.856 118.158C113.061 118.204 111.491 118.207 110.5 118.077L110.5 117.375L110.5 116.109L110.5 115.67L110.5 115.545L110.5 115.511V115.503V115.501V115.5V115.5L110 115.5H110.5C110.5 102.298 122.533 91.5 137.5 91.5C144.906 91.5 152.028 95.7745 157.322 101.344C159.964 104.124 162.133 107.209 163.64 110.209C165.046 113.009 165.861 115.708 165.967 118L164.878 118C163.971 118 162.851 118 162 118C160.296 118.001 158.541 118.001 157.212 118.001L155.597 118L155.141 118L155.02 118L154.989 118L154.981 118L154.979 118H154.979H154.979H154.978H154.927H154.876H154.825H154.775H154.724H154.674H154.623H154.573H154.523H154.473H154.423H154.374H154.325H154.275H154.226H154.177H154.128H154.08H154.031H153.983H153.934H153.886H153.838H153.79H153.743H153.695H153.648H153.6H153.553H153.506H153.459H153.413H153.366H153.319H153.273H153.227H153.181H153.135H153.089H153.043H152.998H152.952H152.907H152.862H152.817H152.772H152.727H152.683H152.638H152.594H152.549H152.505H152.461H152.417H152.374H152.33H152.286H152.243H152.2H152.157H152.114H152.071H152.028H151.985H151.943H151.9H151.858H151.816H151.774H151.732H151.69H151.648H151.607H151.565H151.524H151.482H151.441H151.4H151.359H151.319H151.278H151.237H151.197H151.156H151.116H151.076H151.036H150.996H150.956H150.917H150.877H150.837H150.798H150.759H150.72H150.68H150.641H150.603H150.564H150.525H150.487H150.448H150.41H150.372H150.333H150.295H150.257H150.219H150.182H150.144H150.106H150.069H150.032H149.994H149.957H149.92H149.883H149.846H149.809H149.773H149.736H149.699H149.663H149.627H149.59H149.554H149.518H149.482H149.446H149.41H149.374H149.339H149.303H149.268H149.232H149.197H149.162H149.127H149.092H149.057H149.022H148.987H148.952H148.918H148.883H148.848H148.814H148.78H148.745H148.711H148.677H148.643H148.609H148.575H148.541H148.508H148.474H148.441H148.407H148.374H148.34H148.307H148.274H148.241H148.207H148.174H148.142H148.109H148.076H148.043H148.01H147.978H147.945H147.913H147.88H147.848H147.816H147.784H147.751H147.719H147.687H147.655H147.624H147.592H147.56H147.528H147.497H147.465H147.433H147.402H147.37H147.339H147.308H147.277H147.245H147.214H147.183H147.152H147.121H147.09H147.059H147.028H146.998H146.967H146.936H146.906H146.875H146.845H146.814H146.784H146.753H146.723H146.693H146.662H146.632H146.602H146.572H146.542H146.512H146.482H146.452H146.422H146.392H146.362H146.333H146.303H146.273H146.244H146.214H146.184H146.155H146.125H146.096H146.066H146.037H146.008H145.978H145.949H145.92H145.891H145.861H145.832H145.803H145.774H145.745H145.716H145.687H145.658H145.629H145.6H145.571H145.542H145.514H145.485H145.456H145.427H145.398H145.37H145.341H145.312H145.284H145.255H145.227H145.198H145.169H145.141H145.112H145.084H145.055H145.027H144.999H144.97H144.942H144.913H144.885H144.857H144.828H144.8H144.772H144.743H144.715H144.687H144.659H144.63H144.602H144.574H144.546H144.517H144.489H144.461H144.433H144.405H144.376H144.348H144.32H144.292H144.264H144.236H144.208H144.179H144.151H144.123H144.095H144.067H144.039H144.011H143.983H143.954H143.926H143.898H143.87H143.842H143.814H143.786H143.758H143.729H143.701H143.673H143.645H143.617H143.589H143.56H143.532H143.504H143.476H143.448H143.419H143.391H143.363H143.335H143.306H143.278H143.25H143.222H143.193H143.165H143.137H143.108H143.08H143.051H143.023H142.995H142.966H142.938H142.909H142.881H142.852H142.824H142.795H142.766H142.738H142.709H142.681H142.652H142.623H142.594H142.566H142.537H142.508H142.479H142.45H142.422H142.393H142.364H142.335H142.306H142.277H142.248H142.219H142.19H142.16H142.131H142.102H142.073H142.043H142.014H141.985H141.955H141.926H141.897H141.867H141.838H141.808H141.778H141.749H141.719H141.689H141.66H141.63H141.6H141.57H141.54H141.51H141.48H141.45H141.42H141.39H141.36H141.33H141.299H141.269H141.239H141.208H141.178H141.147H141.117H141.086H141.055H141.025H140.994H140.963H140.932H140.901H140.87H140.839H140.808H140.777H140.746H140.715H140.683H140.652H140.621H140.589H140.558H140.526H140.495H140.463H140.431H140.399H140.367H140.335H140.303H140.271H140.239H140.207H140.175H140.143H140.11H140.078H140.045H140.013H139.98H139.947H139.914H139.882H139.849H139.816H139.783H139.75H139.716H139.683H139.65H139.616H139.583H139.549H139.516H139.482H139.448H139.414H139.38H139.346H139.312H139.278H139.244H139.21H139.175H139.141H139.106H139.072H139.037H139.002H138.967H138.932H138.897H138.862H138.827H138.792H138.756H138.721H138.685H138.65H138.614H138.578H138.542H138.506H138.47H138.434H138.398H138.362H138.325H138.289H138.252H138.215H138.179H138.142H138.105H138.068H138.03H137.993H137.956H137.918H137.881H137.843H137.806H137.768H137.73H137.692H137.654H137.615H137.577H137.539H137.5H137.462H137.423H137.385H137.346H137.308H137.27H137.232H137.193H137.155H137.117H137.079H137.041H137.004H136.966H136.928H136.89H136.853H136.815H136.778H136.74H136.703H136.666H136.628H136.591H136.554H136.517H136.48H136.443H136.406H136.369H136.332H136.296H136.259H136.222H136.186H136.149H136.113H136.076H136.04H136.003H135.967H135.931H135.895H135.859H135.823H135.787H135.751H135.715H135.679H135.643H135.607H135.571H135.536H135.5H135.465H135.429H135.394H135.358H135.323H135.288H135.252H135.217H135.182H135.147H135.112H135.077H135.042H135.007H134.972H134.937H134.902H134.867H134.833H134.798H134.763H134.729H134.694H134.66H134.625H134.591H134.557H134.522H134.488H134.454H134.42H134.385H134.351H134.317H134.283H134.249H134.215H134.182H134.148H134.114H134.08H134.046H134.013H133.979H133.946H133.912H133.878H133.845H133.812H133.778H133.745H133.712H133.678H133.645H133.612H133.579H133.545H133.512H133.479H133.446H133.413H133.38H133.347H133.315H133.282H133.249H133.216H133.184H133.151H133.118H133.086H133.053H133.02H132.988H132.955H132.923H132.891H132.858H132.826H132.793H132.761H132.729H132.697H132.665H132.632H132.6H132.568H132.536H132.504H132.472H132.44H132.408H132.376H132.344H132.312H132.281H132.249H132.217H132.185H132.154H132.122H132.09H132.059H132.027H131.996H131.964H131.932H131.901H131.87H131.838H131.807H131.775H131.744H131.713H131.681H131.65H131.619H131.588H131.556H131.525H131.494H131.463H131.432H131.401H131.37H131.339H131.308H131.277H131.246H131.215H131.184H131.153H131.122H131.091H131.06H131.029H130.999H130.968H130.937H130.906H130.876H130.845H130.814H130.784H130.753H130.722H130.692H130.661H130.631H130.6H130.569H130.539H130.508H130.478H130.448H130.417H130.387H130.356H130.326H130.295H130.265H130.235H130.204H130.174H130.144H130.113H130.083H130.053H130.023H129.992H129.962H129.932H129.902H129.872H129.841H129.811H129.781H129.751H129.721H129.691H129.661H129.631H129.601H129.57H129.54H129.51H129.48H129.45H129.42H129.39H129.36H129.33H129.3H129.27H129.24H129.21H129.181H129.151H129.121H129.091H129.061H129.031H129.001H128.971H128.941H128.911H128.881H128.852H128.822H128.792H128.762H128.732H128.702H128.672H128.643H128.613H128.583H128.553H128.523H128.493H128.464H128.434H128.404H128.374H128.344H128.315H128.285H128.255H128.225H128.195H128.166H128.136H128.106H128.076H128.046H128.017H127.987H127.957H127.927H127.897H127.868H127.838H127.808H127.778H127.748H127.719H127.689H127.659H127.629H127.599H127.569H127.54H127.51H127.48H127.45H127.42H127.39H127.36H127.331H127.301H127.271H127.241H127.211H127.181H127.151H127.121H127.091H127.062H127.032H127.002H126.972H126.942H126.912H126.882H126.852H126.822H126.792H126.762H126.732H126.702H126.672H126.642H126.612H126.582H126.552H126.521H126.491H126.461H126.431H126.401H126.371H126.341H126.311H126.28H126.25H126.22H126.19H126.159H126.129H126.099H126.069H126.038H126.008H125.978H125.947H125.917H125.887H125.856H125.826H125.795H125.765H125.735H125.704H125.674H125.643H125.613H125.582H125.552H125.521H125.49H125.46H125.429H125.399H125.368H125.337H125.307H125.276H125.245H125.214H125.184H125.153H125.122H125.091H125.06H125.029H124.998H124.967H124.937H124.906H124.875H124.844H124.812H124.781H124.75H124.719H124.688H124.657H124.626H124.595H124.563H124.532H124.501H124.469H124.438H124.407H124.375H124.344H124.313H124.281H124.25H124.218H124.187H124.155H124.123H124.092H124.06H124.028H123.997H123.965H123.933H123.901H123.87H123.838H123.806H123.774H123.742H123.71H123.678H123.646H123.614H123.582H123.55H123.518H123.485H123.453H123.421H123.389H123.356H123.324H123.292H123.259H123.227H123.194H123.162H123.129H123.097H123.064H123.031H122.999H122.966H122.933H122.9H122.867H122.835H122.802H122.769H122.736H122.703H122.67H122.637H122.603H122.57H122.537H122.504H122.471H122.437H122.404H122.37H122.337H122.304H122.27H122.236H122.203H122.169H122.136H122.102H122.068H122.034H122H121.967H121.933H121.899H121.865H121.831H121.796H121.762H121.728H121.694H121.66H121.625H121.591H121.557H121.522H121.488H121.453H121.419H121.384H121.349H121.315H121.28H121.245H121.21H121.175H121.14H121.105H121.07H121.035Z" fill="#5EC2CB" stroke="#FCFCFC"/>
<circle cx="138" cy="82" r="14.5" fill="#5EC2CB" stroke="#FCFCFC"/>
<path d="M121.035 51H121C119.761 51 118.333 51.0474 116.918 51.0943C116.22 51.1175 115.524 51.1406 114.856 51.1578C113.061 51.2041 111.491 51.2066 110.5 51.0766L110.5 50.375L110.5 49.1094L110.5 48.6699L110.5 48.5447L110.5 48.5114V48.5029V48.5007V48.5002V48.5L110 48.5H110.5C110.5 35.2979 122.533 24.5 137.5 24.5C144.906 24.5 152.028 28.7745 157.322 34.3445C159.964 37.1237 162.133 40.2087 163.64 43.2088C165.046 46.0086 165.861 48.7076 165.967 50.9999L164.878 50.9997C163.971 50.9996 162.851 50.9996 162 51C160.296 51.0009 158.541 51.0009 157.212 51.0007L155.597 51.0002L155.141 51.0001L155.02 51L154.989 51L154.981 51L154.979 51H154.979H154.979H154.978H154.927H154.876H154.825H154.775H154.724H154.674H154.623H154.573H154.523H154.473H154.423H154.374H154.325H154.275H154.226H154.177H154.128H154.08H154.031H153.983H153.934H153.886H153.838H153.79H153.743H153.695H153.648H153.6H153.553H153.506H153.459H153.413H153.366H153.319H153.273H153.227H153.181H153.135H153.089H153.043H152.998H152.952H152.907H152.862H152.817H152.772H152.727H152.683H152.638H152.594H152.549H152.505H152.461H152.417H152.374H152.33H152.286H152.243H152.2H152.157H152.114H152.071H152.028H151.985H151.943H151.9H151.858H151.816H151.774H151.732H151.69H151.648H151.607H151.565H151.524H151.482H151.441H151.4H151.359H151.319H151.278H151.237H151.197H151.156H151.116H151.076H151.036H150.996H150.956H150.917H150.877H150.837H150.798H150.759H150.72H150.68H150.641H150.603H150.564H150.525H150.487H150.448H150.41H150.372H150.333H150.295H150.257H150.219H150.182H150.144H150.106H150.069H150.032H149.994H149.957H149.92H149.883H149.846H149.809H149.773H149.736H149.699H149.663H149.627H149.59H149.554H149.518H149.482H149.446H149.41H149.374H149.339H149.303H149.268H149.232H149.197H149.162H149.127H149.092H149.057H149.022H148.987H148.952H148.918H148.883H148.848H148.814H148.78H148.745H148.711H148.677H148.643H148.609H148.575H148.541H148.508H148.474H148.441H148.407H148.374H148.34H148.307H148.274H148.241H148.207H148.174H148.142H148.109H148.076H148.043H148.01H147.978H147.945H147.913H147.88H147.848H147.816H147.784H147.751H147.719H147.687H147.655H147.624H147.592H147.56H147.528H147.497H147.465H147.433H147.402H147.37H147.339H147.308H147.277H147.245H147.214H147.183H147.152H147.121H147.09H147.059H147.028H146.998H146.967H146.936H146.906H146.875H146.845H146.814H146.784H146.753H146.723H146.693H146.662H146.632H146.602H146.572H146.542H146.512H146.482H146.452H146.422H146.392H146.362H146.333H146.303H146.273H146.244H146.214H146.184H146.155H146.125H146.096H146.066H146.037H146.008H145.978H145.949H145.92H145.891H145.861H145.832H145.803H145.774H145.745H145.716H145.687H145.658H145.629H145.6H145.571H145.542H145.514H145.485H145.456H145.427H145.398H145.37H145.341H145.312H145.284H145.255H145.227H145.198H145.169H145.141H145.112H145.084H145.055H145.027H144.999H144.97H144.942H144.913H144.885H144.857H144.828H144.8H144.772H144.743H144.715H144.687H144.659H144.63H144.602H144.574H144.546H144.517H144.489H144.461H144.433H144.405H144.376H144.348H144.32H144.292H144.264H144.236H144.208H144.179H144.151H144.123H144.095H144.067H144.039H144.011H143.983H143.954H143.926H143.898H143.87H143.842H143.814H143.786H143.758H143.729H143.701H143.673H143.645H143.617H143.589H143.56H143.532H143.504H143.476H143.448H143.419H143.391H143.363H143.335H143.306H143.278H143.25H143.222H143.193H143.165H143.137H143.108H143.08H143.051H143.023H142.995H142.966H142.938H142.909H142.881H142.852H142.824H142.795H142.766H142.738H142.709H142.681H142.652H142.623H142.594H142.566H142.537H142.508H142.479H142.45H142.422H142.393H142.364H142.335H142.306H142.277H142.248H142.219H142.19H142.16H142.131H142.102H142.073H142.043H142.014H141.985H141.955H141.926H141.897H141.867H141.838H141.808H141.778H141.749H141.719H141.689H141.66H141.63H141.6H141.57H141.54H141.51H141.48H141.45H141.42H141.39H141.36H141.33H141.299H141.269H141.239H141.208H141.178H141.147H141.117H141.086H141.055H141.025H140.994H140.963H140.932H140.901H140.87H140.839H140.808H140.777H140.746H140.715H140.683H140.652H140.621H140.589H140.558H140.526H140.495H140.463H140.431H140.399H140.367H140.335H140.303H140.271H140.239H140.207H140.175H140.143H140.11H140.078H140.045H140.013H139.98H139.947H139.914H139.882H139.849H139.816H139.783H139.75H139.716H139.683H139.65H139.616H139.583H139.549H139.516H139.482H139.448H139.414H139.38H139.346H139.312H139.278H139.244H139.21H139.175H139.141H139.106H139.072H139.037H139.002H138.967H138.932H138.897H138.862H138.827H138.792H138.756H138.721H138.685H138.65H138.614H138.578H138.542H138.506H138.47H138.434H138.398H138.362H138.325H138.289H138.252H138.215H138.179H138.142H138.105H138.068H138.03H137.993H137.956H137.918H137.881H137.843H137.806H137.768H137.73H137.692H137.654H137.615H137.577H137.539H137.5H137.462H137.423H137.385H137.346H137.308H137.27H137.232H137.193H137.155H137.117H137.079H137.041H137.004H136.966H136.928H136.89H136.853H136.815H136.778H136.74H136.703H136.666H136.628H136.591H136.554H136.517H136.48H136.443H136.406H136.369H136.332H136.296H136.259H136.222H136.186H136.149H136.113H136.076H136.04H136.003H135.967H135.931H135.895H135.859H135.823H135.787H135.751H135.715H135.679H135.643H135.607H135.571H135.536H135.5H135.465H135.429H135.394H135.358H135.323H135.288H135.252H135.217H135.182H135.147H135.112H135.077H135.042H135.007H134.972H134.937H134.902H134.867H134.833H134.798H134.763H134.729H134.694H134.66H134.625H134.591H134.557H134.522H134.488H134.454H134.42H134.385H134.351H134.317H134.283H134.249H134.215H134.182H134.148H134.114H134.08H134.046H134.013H133.979H133.946H133.912H133.878H133.845H133.812H133.778H133.745H133.712H133.678H133.645H133.612H133.579H133.545H133.512H133.479H133.446H133.413H133.38H133.347H133.315H133.282H133.249H133.216H133.184H133.151H133.118H133.086H133.053H133.02H132.988H132.955H132.923H132.891H132.858H132.826H132.793H132.761H132.729H132.697H132.665H132.632H132.6H132.568H132.536H132.504H132.472H132.44H132.408H132.376H132.344H132.312H132.281H132.249H132.217H132.185H132.154H132.122H132.09H132.059H132.027H131.996H131.964H131.932H131.901H131.87H131.838H131.807H131.775H131.744H131.713H131.681H131.65H131.619H131.588H131.556H131.525H131.494H131.463H131.432H131.401H131.37H131.339H131.308H131.277H131.246H131.215H131.184H131.153H131.122H131.091H131.06H131.029H130.999H130.968H130.937H130.906H130.876H130.845H130.814H130.784H130.753H130.722H130.692H130.661H130.631H130.6H130.569H130.539H130.508H130.478H130.448H130.417H130.387H130.356H130.326H130.295H130.265H130.235H130.204H130.174H130.144H130.113H130.083H130.053H130.023H129.992H129.962H129.932H129.902H129.872H129.841H129.811H129.781H129.751H129.721H129.691H129.661H129.631H129.601H129.57H129.54H129.51H129.48H129.45H129.42H129.39H129.36H129.33H129.3H129.27H129.24H129.21H129.181H129.151H129.121H129.091H129.061H129.031H129.001H128.971H128.941H128.911H128.881H128.852H128.822H128.792H128.762H128.732H128.702H128.672H128.643H128.613H128.583H128.553H128.523H128.493H128.464H128.434H128.404H128.374H128.344H128.315H128.285H128.255H128.225H128.195H128.166H128.136H128.106H128.076H128.046H128.017H127.987H127.957H127.927H127.897H127.868H127.838H127.808H127.778H127.748H127.719H127.689H127.659H127.629H127.599H127.569H127.54H127.51H127.48H127.45H127.42H127.39H127.36H127.331H127.301H127.271H127.241H127.211H127.181H127.151H127.121H127.091H127.062H127.032H127.002H126.972H126.942H126.912H126.882H126.852H126.822H126.792H126.762H126.732H126.702H126.672H126.642H126.612H126.582H126.552H126.521H126.491H126.461H126.431H126.401H126.371H126.341H126.311H126.28H126.25H126.22H126.19H126.159H126.129H126.099H126.069H126.038H126.008H125.978H125.947H125.917H125.887H125.856H125.826H125.795H125.765H125.735H125.704H125.674H125.643H125.613H125.582H125.552H125.521H125.49H125.46H125.429H125.399H125.368H125.337H125.307H125.276H125.245H125.214H125.184H125.153H125.122H125.091H125.06H125.029H124.998H124.967H124.937H124.906H124.875H124.844H124.812H124.781H124.75H124.719H124.688H124.657H124.626H124.595H124.563H124.532H124.501H124.469H124.438H124.407H124.375H124.344H124.313H124.281H124.25H124.218H124.187H124.155H124.123H124.092H124.06H124.028H123.997H123.965H123.933H123.901H123.87H123.838H123.806H123.774H123.742H123.71H123.678H123.646H123.614H123.582H123.55H123.518H123.485H123.453H123.421H123.389H123.356H123.324H123.292H123.259H123.227H123.194H123.162H123.129H123.097H123.064H123.031H122.999H122.966H122.933H122.9H122.867H122.835H122.802H122.769H122.736H122.703H122.67H122.637H122.603H122.57H122.537H122.504H122.471H122.437H122.404H122.37H122.337H122.304H122.27H122.236H122.203H122.169H122.136H122.102H122.068H122.034H122H121.967H121.933H121.899H121.865H121.831H121.796H121.762H121.728H121.694H121.66H121.625H121.591H121.557H121.522H121.488H121.453H121.419H121.384H121.349H121.315H121.28H121.245H121.21H121.175H121.14H121.105H121.07H121.035Z" fill="#F2B509" stroke="#FCFCFC"/>
<circle cx="138" cy="15" r="14.5" fill="#F2B509" stroke="#FCFCFC"/>
</svg>
