<svg width="159" height="67" viewBox="0 0 159 67" fill="none" xmlns="http://www.w3.org/2000/svg">
<path d="M3.2823 25.0031L3.28219 43.0388C3.28219 43.2514 3.28481 43.4533 3.28789 43.6659C3.31934 45.8411 3.37017 58.873 0.243779 65.691C-2.46997 71.6092 18.1219 56.0562 29.7652 47.0632C34.118 43.7012 39.3957 41.8764 44.8957 41.8764L138.07 41.8764C149.634 41.8764 159 32.502 159 20.9382C159 9.37435 149.626 0 138.062 0L81.1413 0L28.2824 0C14.4753 0 3.28237 11.196 3.2823 25.0031Z" fill="#F4F5F4"/>
<path d="M3.78219 43.0388L3.7823 25.0031C3.78237 11.472 14.7515 0.5 28.2824 0.5L81.1413 0.5L138.062 0.5C149.35 0.5 158.5 9.65049 158.5 20.9382C158.5 32.2262 149.358 41.3764 138.07 41.3764L44.8957 41.3764C39.2837 41.3764 33.8987 43.2388 29.4596 46.6675C23.6375 51.1644 15.5894 57.2925 9.33887 61.5557C6.20466 63.6935 3.55576 65.339 1.87187 66.0846C1.45306 66.27 1.11165 66.3917 0.848462 66.4535C0.717475 66.4842 0.616292 66.4976 0.541454 66.4997C0.526713 66.5001 0.513538 66.5001 0.501836 66.4997C0.511338 66.3928 0.559896 66.2012 0.698275 65.8995C2.30018 62.406 3.0735 57.3685 3.44821 52.9799C3.82435 48.5747 3.80369 44.7546 3.78784 43.6587C3.78476 43.4462 3.78219 43.2475 3.78219 43.0388Z" stroke="#2A2B2E" stroke-opacity="0.8"/>
</svg>
